<svg width="28" height="28" viewBox="0 0 28 28" fill="none" xmlns="http://www.w3.org/2000/svg">
<path d="M13.9999 3.79183C8.36202 3.79183 3.7916 8.36225 3.7916 14.0002C3.7916 15.8598 4.28802 17.6011 5.15544 19.1014C5.2546 19.2723 5.27969 19.4759 5.22544 19.6661L3.9911 24.0072L8.3311 22.7729C8.42511 22.7461 8.52354 22.7385 8.62055 22.7506C8.71755 22.7626 8.81115 22.794 8.89577 22.8429C10.4468 23.7407 12.2078 24.2119 13.9999 24.2085C19.6379 24.2085 24.2083 19.6381 24.2083 14.0002C24.2083 8.36225 19.6379 3.79183 13.9999 3.79183ZM2.33327 14.0002C2.33327 7.55666 7.55644 2.3335 13.9999 2.3335C20.4434 2.3335 25.6666 7.55666 25.6666 14.0002C25.6666 20.4437 20.4434 25.6668 13.9999 25.6668C11.9874 25.6668 10.0928 25.157 8.43902 24.2587L3.6341 25.6248C2.86469 25.8436 2.15419 25.1325 2.37294 24.3637L3.7391 19.5582C2.81318 17.8522 2.32982 15.9412 2.33327 14.0002ZM9.33327 11.8127C9.33327 11.4102 9.65994 11.0835 10.0624 11.0835H17.9374C18.0332 11.0835 18.128 11.1024 18.2165 11.139C18.3049 11.1756 18.3853 11.2294 18.453 11.2971C18.5207 11.3648 18.5745 11.4452 18.6111 11.5336C18.6477 11.6221 18.6666 11.7169 18.6666 11.8127C18.6666 11.9084 18.6477 12.0032 18.6111 12.0917C18.5745 12.1802 18.5207 12.2606 18.453 12.3283C18.3853 12.396 18.3049 12.4497 18.2165 12.4863C18.128 12.523 18.0332 12.5418 17.9374 12.5418H10.0624C9.65994 12.5418 9.33327 12.2152 9.33327 11.8127ZM10.0624 15.4585C9.86905 15.4585 9.68358 15.5353 9.54684 15.6721C9.41009 15.8088 9.33327 15.9943 9.33327 16.1877C9.33327 16.3811 9.41009 16.5665 9.54684 16.7033C9.68358 16.84 9.86905 16.9168 10.0624 16.9168H15.6041C15.7975 16.9168 15.983 16.84 16.1197 16.7033C16.2564 16.5665 16.3333 16.3811 16.3333 16.1877C16.3333 15.9943 16.2564 15.8088 16.1197 15.6721C15.983 15.5353 15.7975 15.4585 15.6041 15.4585H10.0624Z" fill="white"/>
</svg>
