<svg width="16" height="16" viewBox="0 0 16 16" fill="none" xmlns="http://www.w3.org/2000/svg">
<path d="M13 1.625H4.5C4.00272 1.625 3.52581 1.82254 3.17417 2.17417C2.82254 2.52581 2.625 3.00272 2.625 3.5V14C2.625 14.0995 2.66451 14.1948 2.73483 14.2652C2.80516 14.3355 2.90054 14.375 3 14.375H12C12.0995 14.375 12.1948 14.3355 12.2652 14.2652C12.3355 14.1948 12.375 14.0995 12.375 14C12.375 13.9005 12.3355 13.8052 12.2652 13.7348C12.1948 13.6645 12.0995 13.625 12 13.625H3.375V13.5C3.375 13.2016 3.49353 12.9155 3.7045 12.7045C3.91548 12.4935 4.20163 12.375 4.5 12.375H13C13.0995 12.375 13.1948 12.3355 13.2652 12.2652C13.3355 12.1948 13.375 12.0995 13.375 12V2C13.375 1.90054 13.3355 1.80516 13.2652 1.73483C13.1948 1.66451 13.0995 1.625 13 1.625ZM12.625 11.625H4.5C4.09421 11.6244 3.69928 11.7561 3.375 12V3.5C3.375 3.20163 3.49353 2.91548 3.7045 2.7045C3.91548 2.49353 4.20163 2.375 4.5 2.375H12.625V11.625Z" fill="white"/>
</svg>
