<svg width="28" height="28" viewBox="0 0 28 28" fill="none" xmlns="http://www.w3.org/2000/svg">
<path d="M16.1991 11.1907V10.1057C16.826 9.7884 17.4972 9.5504 18.2128 9.39173C18.9283 9.23306 19.6629 9.15373 20.4166 9.15373C20.8475 9.15373 21.2613 9.18134 21.6579 9.23656C22.0538 9.29256 22.4629 9.37112 22.8853 9.47223V10.5316C22.4777 10.4017 22.081 10.3115 21.6953 10.2609C21.3079 10.2111 20.8817 10.1862 20.4166 10.1862C19.6621 10.1862 18.9264 10.271 18.2093 10.4406C17.4906 10.6101 16.8201 10.8602 16.1979 11.1907M16.1979 17.5631V16.4314C16.7953 16.1148 17.463 15.8772 18.2011 15.7186C18.9392 15.5599 19.6777 15.4806 20.4166 15.4806C20.8475 15.4806 21.2613 15.5086 21.6579 15.5646C22.0538 15.619 22.4629 15.6972 22.8853 15.7991V16.8584C22.4777 16.7285 22.081 16.6383 21.6953 16.5877C21.3079 16.538 20.8817 16.5131 20.4166 16.5131C19.6621 16.5131 18.9264 16.6045 18.2093 16.7872C17.4906 16.9692 16.8201 17.2278 16.1979 17.5631ZM16.1979 14.3991V13.2686C16.8248 12.9512 17.496 12.7136 18.2116 12.5557C18.9271 12.3978 19.6621 12.3185 20.4166 12.3177C20.8475 12.3177 21.2609 12.345 21.6568 12.3994C22.0534 12.4554 22.4625 12.5343 22.8841 12.6362V13.6956C22.4773 13.5649 22.0806 13.4747 21.6941 13.4249C21.3075 13.3743 20.8817 13.3491 20.4166 13.3491C19.6621 13.3491 18.9264 13.4416 18.2093 13.6267C17.4906 13.8111 16.8201 14.0685 16.1979 14.3991ZM7.58325 18.7111C8.60214 18.7111 9.59264 18.8281 10.5548 19.0622C11.5169 19.2963 12.4708 19.6775 13.4166 20.2056V8.7594C12.5743 8.15817 11.6464 7.70706 10.6329 7.40606C9.61792 7.10584 8.60136 6.95573 7.58325 6.95573C6.88325 6.95573 6.27036 6.99734 5.74459 7.08056C5.21881 7.16378 4.63509 7.31934 3.99342 7.54723C3.81453 7.60712 3.68736 7.69345 3.61192 7.80623C3.53725 7.91823 3.49992 8.04151 3.49992 8.17606V18.6936C3.49992 18.9036 3.57459 19.0568 3.72392 19.1532C3.87325 19.2497 4.03775 19.2613 4.21742 19.1882C4.64364 19.0443 5.13636 18.9288 5.69559 18.8417C6.25481 18.7546 6.88403 18.7103 7.58325 18.7111ZM14.5833 20.2056C15.529 19.6782 16.483 19.2971 17.4451 19.0622C18.4072 18.8273 19.3977 18.7107 20.4166 18.7122C21.1166 18.7122 21.7458 18.7554 22.3043 18.8417C22.8627 18.9281 23.3554 19.0432 23.7824 19.1871C23.9613 19.2617 24.1258 19.2505 24.2759 19.1532C24.426 19.056 24.5007 18.9028 24.4999 18.6936V8.17606C24.4999 8.04151 24.4626 7.92173 24.3879 7.81673C24.3133 7.71251 24.1861 7.62306 24.0064 7.5484C23.3648 7.32051 22.781 7.16495 22.2553 7.08173C21.7295 6.99851 21.1166 6.95612 20.4166 6.95456C19.3977 6.95456 18.3815 7.10467 17.3681 7.4049C16.3539 7.7059 15.4256 8.15701 14.5833 8.75823V20.2056ZM13.9999 21.8972C13.051 21.2486 12.0321 20.75 10.9433 20.4016C9.85436 20.0531 8.73436 19.8789 7.58325 19.8789C6.97659 19.8789 6.38003 19.9295 5.79359 20.0306C5.20792 20.1325 4.63781 20.2958 4.08325 20.5206C3.66014 20.6893 3.2627 20.6384 2.89092 20.3677C2.51914 20.0971 2.33325 19.723 2.33325 19.2454V7.96956C2.33325 7.68101 2.40909 7.41306 2.56075 7.16573C2.71242 6.9184 2.92514 6.74651 3.19892 6.65006C3.88414 6.34828 4.59697 6.12934 5.33742 5.99323C6.07786 5.85712 6.82647 5.78906 7.58325 5.78906C8.72659 5.78906 9.84114 5.95356 10.9269 6.28256C12.0143 6.61156 13.0386 7.0899 13.9999 7.71756C14.962 7.0899 15.9864 6.61156 17.0729 6.28256C18.1595 5.95356 19.274 5.78906 20.4166 5.78906C21.1734 5.78906 21.922 5.85712 22.6624 5.99323C23.4029 6.12934 24.1157 6.34828 24.8009 6.65006C25.0747 6.74728 25.2874 6.91917 25.4391 7.16573C25.5908 7.41229 25.6666 7.68023 25.6666 7.96956V19.2454C25.6666 19.723 25.4659 20.0897 25.0646 20.3456C24.6625 20.6007 24.2347 20.6438 23.7813 20.4751C23.2423 20.2651 22.6908 20.1134 22.1269 20.0201C21.5638 19.926 20.9937 19.8789 20.4166 19.8789C19.2655 19.8789 18.1455 20.0531 17.0566 20.4016C15.9677 20.75 14.9488 21.2486 13.9999 21.8972Z" fill="white"/>
</svg>
