<svg width="28" height="28" viewBox="0 0 28 28" fill="none" xmlns="http://www.w3.org/2000/svg">
<path d="M15.7501 9.54667V5.61967C15.7501 5.342 15.8411 5.11373 16.0231 4.93484C16.2051 4.75595 16.4306 4.6665 16.6997 4.6665H22.3931C22.663 4.6665 22.887 4.75595 23.0651 4.93484C23.2432 5.11373 23.3326 5.342 23.3334 5.61967V9.54667C23.3334 9.82511 23.2424 10.0534 23.0604 10.2315C22.8784 10.4104 22.6529 10.4998 22.3837 10.4998H16.6904C16.4213 10.4998 16.1973 10.4104 16.0184 10.2315C15.8395 10.0526 15.7501 9.82434 15.7501 9.54667ZM4.66675 13.0665V5.59984C4.66675 5.33539 4.75775 5.11373 4.93975 4.93484C5.12175 4.75595 5.3473 4.6665 5.61641 4.6665H11.3097C11.5796 4.6665 11.8036 4.75595 11.9817 4.93484C12.1599 5.11373 12.2493 5.33539 12.2501 5.59984V13.0665C12.2501 13.3309 12.1591 13.5526 11.9771 13.7315C11.7951 13.9104 11.5695 13.9998 11.3004 13.9998H5.60708C5.33797 13.9998 5.11397 13.9104 4.93508 13.7315C4.75619 13.5526 4.66675 13.3309 4.66675 13.0665ZM15.7501 22.3998V14.9332C15.7501 14.6687 15.8411 14.4471 16.0231 14.2682C16.2051 14.0893 16.4306 13.9998 16.6997 13.9998H22.3931C22.663 13.9998 22.887 14.0893 23.0651 14.2682C23.2432 14.4471 23.3326 14.6687 23.3334 14.9332V22.3998C23.3334 22.6643 23.2424 22.8859 23.0604 23.0648C22.8784 23.2437 22.6529 23.3332 22.3837 23.3332H16.6904C16.4213 23.3332 16.1973 23.2437 16.0184 23.0648C15.8395 22.8859 15.7501 22.6643 15.7501 22.3998ZM4.66675 22.38V18.453C4.66675 18.1753 4.75775 17.9471 4.93975 17.7682C5.12175 17.5893 5.3473 17.4998 5.61641 17.4998H11.3097C11.5796 17.4998 11.8036 17.5893 11.9817 17.7682C12.1599 17.9471 12.2493 18.1753 12.2501 18.453V22.38C12.2501 22.6584 12.1591 22.8867 11.9771 23.0648C11.7951 23.2437 11.5695 23.3332 11.3004 23.3332H5.60708C5.33797 23.3332 5.11397 23.2437 4.93508 23.0648C4.75619 22.8859 4.66675 22.6577 4.66675 22.38ZM5.83341 12.8332H11.0834V5.83317H5.83341V12.8332ZM16.9167 22.1665H22.1667V15.1665H16.9167V22.1665ZM16.9167 9.33317H22.1667V5.83317H16.9167V9.33317ZM5.83341 22.1665H11.0834V18.6665H5.83341V22.1665Z" fill="white"/>
</svg>
