<svg width="28" height="28" viewBox="0 0 28 28" fill="none" xmlns="http://www.w3.org/2000/svg">
<path d="M23.625 7.21852H15.5837L19.7138 3.08852C19.8297 2.96412 19.8928 2.79957 19.8898 2.62956C19.8868 2.45955 19.8179 2.29734 19.6977 2.1771C19.5774 2.05686 19.4152 1.98799 19.2452 1.98499C19.0752 1.98199 18.9107 2.0451 18.7862 2.16102L14 6.94617L9.21375 2.16102C9.15367 2.09654 9.08122 2.04483 9.00072 2.00896C8.92022 1.97309 8.83332 1.95381 8.74521 1.95225C8.65709 1.9507 8.56957 1.9669 8.48785 1.99991C8.40614 2.03292 8.33191 2.08204 8.26959 2.14436C8.20728 2.20668 8.15815 2.28091 8.12514 2.36262C8.09214 2.44434 8.07593 2.53186 8.07748 2.61998C8.07904 2.70809 8.09832 2.79499 8.13419 2.87549C8.17006 2.95599 8.22177 3.02844 8.28625 3.08852L12.4162 7.21852H4.375C3.96889 7.21852 3.57941 7.37985 3.29224 7.66701C3.00508 7.95418 2.84375 8.34366 2.84375 8.74977V21.8748C2.84375 22.2809 3.00508 22.6704 3.29224 22.9575C3.57941 23.2447 3.96889 23.406 4.375 23.406H23.625C24.0311 23.406 24.4206 23.2447 24.7078 22.9575C24.9949 22.6704 25.1562 22.2809 25.1562 21.8748V8.74977C25.1562 8.34366 24.9949 7.95418 24.7078 7.66701C24.4206 7.37985 24.0311 7.21852 23.625 7.21852ZM23.8438 21.8748C23.8438 21.9328 23.8207 21.9884 23.7797 22.0294C23.7387 22.0705 23.683 22.0935 23.625 22.0935H4.375C4.31698 22.0935 4.26134 22.0705 4.22032 22.0294C4.1793 21.9884 4.15625 21.9328 4.15625 21.8748V8.74977C4.15625 8.69175 4.1793 8.63611 4.22032 8.59509C4.26134 8.55406 4.31698 8.53102 4.375 8.53102H23.625C23.683 8.53102 23.7387 8.55406 23.7797 8.59509C23.8207 8.63611 23.8438 8.69175 23.8438 8.74977V21.8748Z" fill="white"/>
</svg>
