<svg width="28" height="28" viewBox="0 0 28 28" fill="none" xmlns="http://www.w3.org/2000/svg">
<path d="M18.6667 3.5L14 8.16667L9.33333 3.5M3.5 10.5C3.5 9.88116 3.74583 9.28767 4.18342 8.85008C4.621 8.4125 5.21449 8.16667 5.83333 8.16667H22.1667C22.7855 8.16667 23.379 8.4125 23.8166 8.85008C24.2542 9.28767 24.5 9.88116 24.5 10.5V21C24.5 21.6188 24.2542 22.2123 23.8166 22.6499C23.379 23.0875 22.7855 23.3333 22.1667 23.3333H5.83333C5.21449 23.3333 4.621 23.0875 4.18342 22.6499C3.74583 22.2123 3.5 21.6188 3.5 21V10.5Z" stroke="white" stroke-width="2" stroke-linecap="round" stroke-linejoin="round"/>
</svg>
