<svg width="28" height="28" viewBox="0 0 28 28" fill="none" xmlns="http://www.w3.org/2000/svg">
<path d="M6.3001 9.4499C6.3001 8.61447 6.63197 7.81326 7.22271 7.22252C7.81345 6.63178 8.61467 6.2999 9.4501 6.2999C10.2855 6.2999 11.0867 6.63178 11.6775 7.22252C12.2682 7.81326 12.6001 8.61447 12.6001 9.4499C12.6001 10.2853 12.2682 11.0865 11.6775 11.6773C11.0867 12.268 10.2855 12.5999 9.4501 12.5999C8.61467 12.5999 7.81345 12.268 7.22271 11.6773C6.63197 11.0865 6.3001 10.2853 6.3001 9.4499ZM9.4501 4.8999C8.24336 4.8999 7.08605 5.37928 6.23276 6.23257C5.37947 7.08586 4.9001 8.24317 4.9001 9.4499C4.9001 10.6566 5.37947 11.8139 6.23276 12.6672C7.08605 13.5205 8.24336 13.9999 9.4501 13.9999C10.6568 13.9999 11.8141 13.5205 12.6674 12.6672C13.5207 11.8139 14.0001 10.6566 14.0001 9.4499C14.0001 8.24317 13.5207 7.08586 12.6674 6.23257C11.8141 5.37928 10.6568 4.8999 9.4501 4.8999ZM14.0001 15.3999C14.5573 15.3999 15.0753 15.5623 15.5121 15.8423C15.1326 16.1372 14.8658 16.5532 14.7561 17.0211C14.5305 16.8765 14.2681 16.7998 14.0001 16.7999H4.9001C4.52879 16.7999 4.1727 16.9474 3.91015 17.21C3.6476 17.4725 3.5001 17.8286 3.5001 18.1999V18.3091L3.5099 18.4253C3.58587 19.0964 3.82526 19.7386 4.2071 20.2957C4.8889 21.2813 6.3183 22.3999 9.4501 22.3999C12.5819 22.3999 14.0113 21.2813 14.6931 20.2957L14.7001 20.2845V20.2999C14.7001 20.8375 14.9017 21.3289 15.2349 21.6999C15.1304 21.8168 15.0393 21.945 14.9633 22.0821C13.8517 23.0593 12.1185 23.7999 9.4501 23.7999C5.9319 23.7999 4.0363 22.5119 3.0549 21.0923C2.53816 20.3394 2.2159 19.4703 2.1169 18.5625C2.10891 18.481 2.10331 18.3993 2.1001 18.3175V18.1999C2.1001 17.4573 2.3951 16.7451 2.9202 16.22C3.4453 15.6949 4.15749 15.3999 4.9001 15.3999H14.0001ZM18.2001 10.4999C18.2001 9.94295 18.4213 9.4088 18.8152 9.01498C19.209 8.62115 19.7431 8.3999 20.3001 8.3999C20.8571 8.3999 21.3912 8.62115 21.785 9.01498C22.1788 9.4088 22.4001 9.94295 22.4001 10.4999C22.4001 11.0569 22.1788 11.591 21.785 11.9848C21.3912 12.3787 20.8571 12.5999 20.3001 12.5999C19.7431 12.5999 19.209 12.3787 18.8152 11.9848C18.4213 11.591 18.2001 11.0569 18.2001 10.4999ZM20.3001 6.9999C19.3718 6.9999 18.4816 7.36865 17.8252 8.02503C17.1688 8.68141 16.8001 9.57164 16.8001 10.4999C16.8001 11.4282 17.1688 12.3184 17.8252 12.9748C18.4816 13.6312 19.3718 13.9999 20.3001 13.9999C21.2284 13.9999 22.1186 13.6312 22.775 12.9748C23.4313 12.3184 23.8001 11.4282 23.8001 10.4999C23.8001 9.57164 23.4313 8.68141 22.775 8.02503C22.1186 7.36865 21.2284 6.9999 20.3001 6.9999ZM16.8001 16.7999C16.6144 16.7999 16.4364 16.8737 16.3051 17.0049C16.1738 17.1362 16.1001 17.3143 16.1001 17.4999C16.1001 17.6856 16.1738 17.8636 16.3051 17.9949C16.4364 18.1262 16.6144 18.1999 16.8001 18.1999H25.2001C25.3857 18.1999 25.5638 18.1262 25.6951 17.9949C25.8263 17.8636 25.9001 17.6856 25.9001 17.4999C25.9001 17.3143 25.8263 17.1362 25.6951 17.0049C25.5638 16.8737 25.3857 16.7999 25.2001 16.7999H16.8001ZM16.8001 19.5999C16.6144 19.5999 16.4364 19.6737 16.3051 19.8049C16.1738 19.9362 16.1001 20.1143 16.1001 20.2999C16.1001 20.4856 16.1738 20.6636 16.3051 20.7949C16.4364 20.9262 16.6144 20.9999 16.8001 20.9999H25.2001C25.3857 20.9999 25.5638 20.9262 25.6951 20.7949C25.8263 20.6636 25.9001 20.4856 25.9001 20.2999C25.9001 20.1143 25.8263 19.9362 25.6951 19.8049C25.5638 19.6737 25.3857 19.5999 25.2001 19.5999H16.8001ZM16.8001 22.3999C16.6144 22.3999 16.4364 22.4737 16.3051 22.6049C16.1738 22.7362 16.1001 22.9143 16.1001 23.0999C16.1001 23.2856 16.1738 23.4636 16.3051 23.5949C16.4364 23.7262 16.6144 23.7999 16.8001 23.7999H25.2001C25.3857 23.7999 25.5638 23.7262 25.6951 23.5949C25.8263 23.4636 25.9001 23.2856 25.9001 23.0999C25.9001 22.9143 25.8263 22.7362 25.6951 22.6049C25.5638 22.4737 25.3857 22.3999 25.2001 22.3999H16.8001Z" fill="white"/>
</svg>
