<svg width="28" height="28" viewBox="0 0 28 28" fill="none" xmlns="http://www.w3.org/2000/svg">
<path d="M3.71875 7C3.71875 6.82595 3.78789 6.65903 3.91096 6.53596C4.03403 6.41289 4.20095 6.34375 4.375 6.34375H23.625C23.799 6.34375 23.966 6.41289 24.089 6.53596C24.2121 6.65903 24.2812 6.82595 24.2812 7C24.2812 7.17405 24.2121 7.34097 24.089 7.46404C23.966 7.58711 23.799 7.65625 23.625 7.65625H4.375C4.20095 7.65625 4.03403 7.58711 3.91096 7.46404C3.78789 7.34097 3.71875 7.17405 3.71875 7ZM4.375 14.6562H10.5C10.674 14.6562 10.841 14.5871 10.964 14.464C11.0871 14.341 11.1562 14.174 11.1562 14C11.1562 13.826 11.0871 13.659 10.964 13.536C10.841 13.4129 10.674 13.3438 10.5 13.3438H4.375C4.20095 13.3438 4.03403 13.4129 3.91096 13.536C3.78789 13.659 3.71875 13.826 3.71875 14C3.71875 14.174 3.78789 14.341 3.91096 14.464C4.03403 14.5871 4.20095 14.6562 4.375 14.6562ZM12.25 20.3438H4.375C4.20095 20.3438 4.03403 20.4129 3.91096 20.536C3.78789 20.659 3.71875 20.826 3.71875 21C3.71875 21.174 3.78789 21.341 3.91096 21.464C4.03403 21.5871 4.20095 21.6562 4.375 21.6562H12.25C12.424 21.6562 12.591 21.5871 12.714 21.464C12.8371 21.341 12.9062 21.174 12.9062 21C12.9062 20.826 12.8371 20.659 12.714 20.536C12.591 20.4129 12.424 20.3438 12.25 20.3438ZM25.7928 15.5575L23.2236 17.6783L24.0067 20.8425C24.0377 20.9679 24.031 21.0997 23.9875 21.2213C23.9439 21.343 23.8654 21.449 23.7618 21.5262C23.6582 21.6034 23.5341 21.6484 23.4051 21.6553C23.2761 21.6623 23.1479 21.631 23.0366 21.5655L20.125 19.8516L17.2134 21.5655C17.1021 21.631 16.9739 21.6623 16.8449 21.6553C16.7159 21.6484 16.5918 21.6034 16.4882 21.5262C16.3846 21.449 16.3061 21.343 16.2625 21.2213C16.219 21.0997 16.2123 20.9679 16.2433 20.8425L17.0264 17.6783L14.4572 15.5575C14.3563 15.4742 14.2826 15.3627 14.2455 15.2372C14.2085 15.1117 14.2098 14.978 14.2493 14.8532C14.2888 14.7285 14.3647 14.6184 14.4672 14.5371C14.5697 14.4558 14.6942 14.407 14.8247 14.397L18.2153 14.1345L19.518 11.1147C19.569 10.9976 19.6531 10.898 19.76 10.828C19.8668 10.758 19.9918 10.7207 20.1195 10.7207C20.2473 10.7207 20.3722 10.758 20.4791 10.828C20.5859 10.898 20.67 10.9976 20.7211 11.1147L22.0238 14.1345L25.4144 14.397C25.5448 14.407 25.6693 14.4558 25.7719 14.5371C25.8744 14.6184 25.9503 14.7285 25.9898 14.8532C26.0293 14.978 26.0306 15.1117 25.9936 15.2372C25.9565 15.3627 25.8828 15.4742 25.7819 15.5575H25.7928ZM23.7038 15.5805L21.5348 15.4131C21.4165 15.403 21.3031 15.3609 21.2068 15.2913C21.1105 15.2218 21.0349 15.1274 20.988 15.0183L20.125 13.0309L19.2675 15.0183C19.2206 15.1274 19.145 15.2218 19.0487 15.2913C18.9524 15.3609 18.839 15.403 18.7206 15.4131L16.5517 15.5805L18.1858 16.9291C18.2811 17.0079 18.3522 17.112 18.3909 17.2295C18.4296 17.3469 18.4343 17.4729 18.4045 17.593L17.8981 19.6427L19.7969 18.5248C19.8977 18.4656 20.0125 18.4344 20.1294 18.4344C20.2463 18.4344 20.3611 18.4656 20.4619 18.5248L22.3617 19.6427L21.8553 17.593C21.8255 17.4729 21.8302 17.3469 21.8689 17.2295C21.9076 17.112 21.9787 17.0079 22.0741 16.9291L23.7038 15.5805Z" fill="white"/>
</svg>
