<svg width="28" height="28" viewBox="0 0 28 28" fill="none" xmlns="http://www.w3.org/2000/svg">
<path d="M17.5 12.2499C16.7708 12.2499 16.0918 12.3867 15.4629 12.6601C14.834 12.9335 14.278 13.3072 13.7949 13.7812C13.3118 14.2551 12.9336 14.8157 12.6602 15.4628C12.3867 16.11 12.25 16.789 12.25 17.4999C12.25 18.3385 12.0632 19.1269 11.6895 19.8652C11.3158 20.6035 10.7917 21.2232 10.1172 21.7245C10.7096 22.0253 11.2428 22.3945 11.7168 22.832C12.1908 23.2695 12.6009 23.7617 12.9473 24.3085C13.2936 24.8554 13.5534 25.4387 13.7266 26.0585C13.8997 26.6783 13.9909 27.3255 14 27.9999H12.25C12.25 27.2799 12.1133 26.6009 11.8398 25.9628C11.5664 25.3248 11.1927 24.7688 10.7188 24.2949C10.2448 23.8209 9.68424 23.4426 9.03711 23.1601C8.38997 22.8775 7.71094 22.7408 7 22.7499C6.27083 22.7499 5.5918 22.8867 4.96289 23.1601C4.33398 23.4335 3.77799 23.8072 3.29492 24.2812C2.81185 24.7551 2.43359 25.3157 2.16016 25.9628C1.88672 26.61 1.75 27.289 1.75 27.9999H0C0 27.3346 0.0911458 26.692 0.273438 26.0722C0.455729 25.4524 0.715495 24.8691 1.05273 24.3222C1.38997 23.7753 1.79557 23.2831 2.26953 22.8456C2.74349 22.4081 3.28125 22.0344 3.88281 21.7245C3.20833 21.2232 2.68424 20.6035 2.31055 19.8652C1.93685 19.1269 1.75 18.3385 1.75 17.4999C1.75 16.7799 1.88672 16.1009 2.16016 15.4628C2.43359 14.8248 2.80729 14.2688 3.28125 13.7949C3.75521 13.3209 4.3112 12.9426 4.94922 12.6601C5.58724 12.3775 6.27083 12.2408 7 12.2499C7.83854 12.2499 8.62695 12.4368 9.36523 12.8105C10.1035 13.1842 10.7233 13.7083 11.2246 14.3828C11.571 13.6992 12.013 13.0885 12.5508 12.5507C13.0885 12.013 13.6992 11.5709 14.3828 11.2245C13.7083 10.7232 13.1842 10.1035 12.8105 9.36517C12.4368 8.62689 12.25 7.83848 12.25 6.99994C12.25 6.27989 12.3867 5.60085 12.6602 4.96283C12.9336 4.32481 13.3073 3.76882 13.7812 3.29486C14.2552 2.8209 14.8112 2.44265 15.4492 2.1601C16.0872 1.87754 16.7708 1.74082 17.5 1.74994C18.2201 1.74994 18.8991 1.88666 19.5371 2.1601C20.1751 2.43353 20.7311 2.80723 21.2051 3.28119C21.679 3.75515 22.0573 4.31569 22.3398 4.96283C22.6224 5.60996 22.7591 6.289 22.75 6.99994C22.75 7.83848 22.5632 8.62689 22.1895 9.36517C21.8158 10.1035 21.2917 10.7232 20.6172 11.2245C21.2096 11.5253 21.7428 11.8945 22.2168 12.332C22.6908 12.7695 23.1009 13.2617 23.4473 13.8085C23.7936 14.3554 24.0534 14.9387 24.2266 15.5585C24.3997 16.1783 24.4909 16.8255 24.5 17.4999H22.75C22.75 16.7799 22.6133 16.1009 22.3398 15.4628C22.0664 14.8248 21.6927 14.2688 21.2188 13.7949C20.7448 13.3209 20.1842 12.9426 19.5371 12.6601C18.89 12.3775 18.2109 12.2408 17.5 12.2499ZM14 6.99994C14 7.48301 14.0911 7.93418 14.2734 8.35345C14.4557 8.77273 14.7064 9.14642 15.0254 9.47455C15.3444 9.80267 15.7135 10.0533 16.1328 10.2265C16.5521 10.3997 17.0078 10.4908 17.5 10.4999C17.9831 10.4999 18.4342 10.4088 18.8535 10.2265C19.2728 10.0442 19.6465 9.79356 19.9746 9.47455C20.3027 9.15554 20.5534 8.7864 20.7266 8.36713C20.8997 7.94786 20.9909 7.49213 21 6.99994C21 6.51687 20.9089 6.06569 20.7266 5.64642C20.5443 5.22715 20.2936 4.85345 19.9746 4.52533C19.6556 4.1972 19.2865 3.94655 18.8672 3.77338C18.4479 3.6002 17.9922 3.50905 17.5 3.49994C17.0169 3.49994 16.5658 3.59108 16.1465 3.77338C15.7272 3.95567 15.3535 4.20632 15.0254 4.52533C14.6973 4.84434 14.4466 5.21348 14.2734 5.63275C14.1003 6.05202 14.0091 6.50775 14 6.99994ZM7 20.9999C7.48307 20.9999 7.93424 20.9088 8.35352 20.7265C8.77279 20.5442 9.14648 20.2936 9.47461 19.9745C9.80273 19.6555 10.0534 19.2864 10.2266 18.8671C10.3997 18.4479 10.4909 17.9921 10.5 17.4999C10.5 17.0169 10.4089 16.5657 10.2266 16.1464C10.0443 15.7272 9.79362 15.3535 9.47461 15.0253C9.1556 14.6972 8.78646 14.4466 8.36719 14.2734C7.94792 14.1002 7.49219 14.0091 7 13.9999C6.51693 13.9999 6.06576 14.0911 5.64648 14.2734C5.22721 14.4557 4.85352 14.7063 4.52539 15.0253C4.19727 15.3443 3.94661 15.7135 3.77344 16.1328C3.60026 16.552 3.50911 17.0078 3.5 17.4999C3.5 17.983 3.59115 18.4342 3.77344 18.8535C3.95573 19.2727 4.20638 19.6464 4.52539 19.9745C4.8444 20.3027 5.21354 20.5533 5.63281 20.7265C6.05208 20.8997 6.50781 20.9908 7 20.9999ZM28 24.4999H24.5V27.9999H22.75V24.4999H19.25V22.7499H22.75V19.2499H24.5V22.7499H28V24.4999Z" fill="white"/>
</svg>
