<svg width="28" height="28" viewBox="0 0 28 28" fill="none" xmlns="http://www.w3.org/2000/svg">
<path d="M4.40756 13.9322C3.30156 12.0049 2.76722 10.4299 2.44522 8.83386C1.96922 6.47253 3.05889 4.16603 4.86372 2.69369C5.62672 2.07186 6.50172 2.28536 6.95322 3.09386L7.97172 4.92203C8.77906 6.37103 9.18272 7.09436 9.10339 7.86203C9.02289 8.63086 8.47806 9.25619 7.38956 10.5069L4.40756 13.9322ZM4.40756 13.9322C6.64639 17.8359 10.1592 21.3522 14.0676 23.5922M14.0676 23.5922C15.9961 24.6982 17.5699 25.2325 19.1659 25.5545C21.5272 26.0305 23.8337 24.9409 25.3049 23.136C25.9279 22.373 25.7144 21.498 24.9059 21.0465L23.0777 20.028C21.6287 19.2207 20.9054 18.817 20.1377 18.8964C19.3689 18.9769 18.7436 19.5217 17.4929 20.6102L14.0676 23.5922ZM25.6666 5.83319H13.9999M25.6666 5.83319C25.6666 5.17986 24.0379 3.95836 23.6249 3.49986M25.6666 5.83319C25.6666 6.48653 24.0379 7.70803 23.6249 8.16653M13.9999 5.83319C13.9999 5.17986 15.6286 3.95836 16.0416 3.49986M13.9999 5.83319C13.9999 6.48653 15.6286 7.70803 16.0416 8.16653" stroke="white" stroke-width="1.5" stroke-linecap="round" stroke-linejoin="round"/>
</svg>
